<svg xmlns="http://www.w3.org/2000/svg" width="22" height="22" viewBox="0 0 22 22">
  <path d="M19.6501263,10.0283843 L12.3728651,17.3062851 L12.3728651,1.37472607 C12.3728651,0.615687475 11.7572317,-2.50000092e-08 10.9982599,-2.50000092e-08 C10.239288,-2.50000092e-08 9.62365464,0.615687475 9.62365464,1.37472607 L9.62365464,17.3062851 L2.34639348,10.0283843 C1.80913217,9.49107567 0.93878947,9.49107567 0.402559371,10.0283843 C-0.133670727,10.5656928 -0.134701939,11.436112 0.402559371,11.9723892 L10.0268584,21.5975342 C10.1588535,21.7295409 10.3104417,21.828546 10.4723419,21.8955806 C10.8095481,22.0348064 11.1900653,22.0348064 11.5272715,21.8955806 C11.6471498,21.8460781 11.7606476,21.7785922 11.8647194,21.6939932 L11.972755,21.5965029 L21.597054,11.9713579 C22.1343153,11.4340494 22.1343153,10.5636302 21.597054,10.027353 C21.0956101,9.52682749 20.3040153,9.49256075 19.7647231,9.9270682 L19.6501263,10.0283843 Z"/>
</svg>
