<?xml version="1.0" encoding="UTF-8"?>
<svg width="32px" height="32px" viewBox="0 0 32 32" version="1.1" xmlns="http://www.w3.org/2000/svg" xmlns:xlink="http://www.w3.org/1999/xlink">
    <path d="M31.998,16.098104 C31.998,7.20737037 24.835,0 15.999,0 C7.163,0 0,7.20737037 0,16.098104 C0,24.1325661 5.851,30.7925667 13.499,32 L13.499,20.7507468 L9.437,20.7507468 L9.437,16.0970978 L13.499,16.0970978 L13.499,12.5502626 C13.499,8.51542307 15.888,6.28670251 19.542,6.28670251 C21.292,6.28670251 23.123,6.60063516 23.123,6.60063516 L23.123,10.5620225 L21.106,10.5620225 C19.119,10.5620225 18.499,11.8026601 18.499,13.075496 L18.499,16.0950854 L22.936,16.0950854 L22.227,20.7487344 L18.499,20.7487344 L18.499,31.9979876 C26.148,30.7905544 31.998,24.1305537 31.998,16.0960916 L31.998,16.098104 Z"></path>
</svg>