<?xml version="1.0" encoding="UTF-8"?>
<svg width="18px" height="18px" viewBox="0 0 18 18" version="1.1" xmlns="http://www.w3.org/2000/svg" xmlns:xlink="http://www.w3.org/1999/xlink">
	<g>
		<path d="M13.0325442,0 L4.96724277,0 C2.22830676,0 0,2.22841324 0,4.96734925 L0,13.0326507 C0,15.7716932 2.22830676,18 4.96724277,18 L13.0325442,18 C15.7716932,18 18,15.7715867 18,13.0326507 L18,4.96734925 C18,2.22841324 15.7716932,0 13.0325442,0 Z M16.4030591,13.0326507 C16.4030591,14.8910813 14.8910813,16.4029528 13.0326507,16.4029528 L4.96724277,16.4029528 C3.10891862,16.4029528 1.59704723,14.8910813 1.59704723,13.0326507 L1.59704723,4.96734925 C1.59704723,3.10902508 3.10891862,1.59704723 4.96724277,1.59704723 L13.0325442,1.59704723 C14.8909749,1.59704723 16.4030591,3.10902508 16.4030591,4.96734925 L16.4030591,13.0326507 L16.4030591,13.0326507 Z" id="Shape"></path>
		<path d="M9,4 C6.24295848,4 4,6.24300997 4,9.00011479 C4,11.7571049 6.24295848,14 9,14 C11.7570416,14 14,11.7571049 14,9.00011479 C14,6.24300997 11.7570416,4 9,4 Z M9.00000001,12.2782012 C7.19238804,12.2782012 5.72164451,10.8076534 5.72164451,9.00000001 C5.72164451,7.19223177 7.19227326,5.72156926 9.00000001,5.72156926 C10.8077267,5.72156926 12.2783555,7.19223177 12.2783555,9.00000001 C12.2783555,10.8076534 10.807612,12.2782012 9.00000001,12.2782012 Z" id="Shape"></path>
		<path d="M14,3 C13.7372727,3 13.4791818,3.10636364 13.2936364,3.29272728 C13.1071818,3.47818182 13,3.73636364 13,4 C13,4.26281818 13.1072727,4.52090909 13.2936364,4.70727272 C13.4790909,4.89272727 13.7372727,5 14,5 C14.2636363,5 14.5209091,4.89272727 14.7072727,4.70727272 C14.8936363,4.52090909 15,4.26272728 15,4 C15,3.73636364 14.8936363,3.47818182 14.7072727,3.29272728 C14.5218182,3.10636364 14.2636363,3 14,3 Z"></path>
	</g>
</svg>