<?xml version="1.0" encoding="UTF-8"?>
<svg width="12px" height="16px" viewBox="0 0 12 16" version="1.1" xmlns="http://www.w3.org/2000/svg" xmlns:xlink="http://www.w3.org/1999/xlink">
    <path d="M6,0 C2.69158212,0 0,2.59944067 0,5.79456956 C0,9.75982439 5.3694122,15.5810502 5.59801968,15.8269255 C5.8127457,16.0578946 6.18764255,16.0574883 6.40198026,15.8269255 C6.63058775,15.5810502 12,9.75982439 12,5.79456956 C12,2.59944067 9.30838548,0 6,0 Z M5.99999998,8.70997936 C4.33545275,8.70997936 2.98128103,7.40213402 2.98128103,5.79456956 C2.98128103,4.1870051 4.3354851,2.87919101 5.99999998,2.87919101 C7.66451485,2.87919101 9.01868656,4.18703635 9.01868656,5.79460081 C9.01868656,7.40216527 7.66451485,8.70997936 5.99999998,8.70997936 Z"></path>
</svg>