<?xml version="1.0" encoding="UTF-8"?>
<svg width="19px" height="22px" viewBox="0 0 19 22" version="1.1" xmlns="http://www.w3.org/2000/svg" xmlns:xlink="http://www.w3.org/1999/xlink">
    <path d="M10.5443113,21.9383415 C14.9251744,21.4439923 18.4361105,17.9161367 18.9357609,13.5029467 C19.591552,7.73254345 15.1393103,2.82051016 9.55839408,2.75759299 L9.55839408,0.169000878 C9.55839408,0.0251902057 9.37994752,-0.0512092142 9.25949609,0.0386724563 L3.96855554,3.95301921 C3.87933226,4.02043046 3.87933226,4.15075888 3.96855554,4.21817013 L9.25949609,8.13251689 C9.37994752,8.22239856 9.55839408,8.14150505 9.55839408,8.00218846 L9.55839408,5.41809044 C13.4797573,5.48100761 16.6204167,8.84258208 16.3527469,12.8602928 C16.1252275,16.316243 13.3280777,19.1205511 9.89744254,19.3407612 C6.26159385,19.5744535 3.17000718,16.9588969 2.61682283,13.4984526 C2.51421606,12.8557987 1.95657056,12.388414 1.31416294,12.388414 C0.515614573,12.388414 -0.108948392,13.1029733 0.0159642012,13.898426 C0.792206744,18.8284357 5.31136591,22.5270664 10.5443113,21.9383415 Z"></path>
</svg>