<?xml version="1.0" encoding="UTF-8"?>
<svg width="18px" height="15px" viewBox="0 0 18 15" version="1.1" xmlns="http://www.w3.org/2000/svg" xmlns:xlink="http://www.w3.org/1999/xlink">
    <path d="M18,1.77473603 C17.3374989,2.07590135 16.6266448,2.28014823 15.8797612,2.37133363 C16.6423801,1.90282408 17.2261458,1.15970221 17.5028227,0.276935705 C16.7874686,0.710805664 15.9978497,1.02585096 15.1564954,1.19663501 C14.482759,0.459276352 13.5244339,0 12.461491,0 C10.4222523,0 8.76880845,1.696284 8.76880845,3.78721193 C8.76880845,4.08376064 8.80142615,4.37339954 8.86442625,4.65036542 C5.79600947,4.49225438 3.07515208,2.98407425 1.2541197,0.692339261 C0.935795647,1.25085745 0.754707116,1.9016473 0.754707116,2.59634012 C0.754707116,3.91068337 1.40709053,5.07038558 2.39691568,5.74887504 C1.79176763,5.72811542 1.22261964,5.55733136 0.724354125,5.27345567 L0.724354125,5.32076829 C0.724354125,7.15552013 1.99762091,8.68678328 3.68591779,9.03529138 C3.37659375,9.12068341 3.05041675,9.16799603 2.71297502,9.16799603 C2.47453346,9.16799603 2.24394484,9.14376641 2.01785624,9.0976004 C2.48800407,10.6034874 3.851271,11.6985572 5.46647952,11.7285801 C4.2033304,12.7440513 2.61062191,13.3475586 0.880707321,13.3475586 C0.582648011,13.3475586 0.289059296,13.3290923 0,13.2956295 C1.6343262,14.372263 3.57459408,15 5.65995042,15 C12.4525498,15 16.165497,9.22801183 16.165497,4.22225867 L16.1531146,3.73184289 C16.8785864,3.20099414 17.5062051,2.5340311 18,1.77473603 Z"></path>
</svg>