<?xml version="1.0" encoding="UTF-8"?>
<svg width="20px" height="14px" viewBox="0 0 20 14" version="1.1" xmlns="http://www.w3.org/2000/svg" xmlns:xlink="http://www.w3.org/1999/xlink">
    <path d="M19.15,1.34909091 C18.6075,0.366545455 18.01875,0.185818182 16.82,0.117090909 C15.6225,0.0343636364 12.61125,0 10.0025,0 C7.38875002,0 4.37625001,0.0343636364 3.18000001,0.115818182 C1.98375,0.185818182 1.39375,0.365272727 0.846250003,1.34909091 C0.287500002,2.33036364 0,4.02054545 0,6.99618182 C0,6.99872727 0,7 0,7 C0,7.00254545 0,7.00381818 0,7.00381818 L0,7.00636364 C0,9.96927273 0.287500002,11.6721818 0.846250003,12.6432727 C1.39375,13.6258182 1.9825,13.804 3.17875001,13.8867273 C4.37625001,13.958 7.38875002,14 10.0025,14 C12.61125,14 15.6225,13.958 16.82125,13.888 C18.02,13.8052727 18.60875,13.6270909 19.15125,12.6445455 C19.715,11.6734545 20,9.97054545 20,7.00763636 C20,7.00763636 20,7.00381818 20,7.00127273 C20,7.00127273 20,6.99872727 20,6.99745455 C20,4.02054545 19.715,2.33036364 19.15,1.34909091 Z M7.50000002,10.8181818 L7.50000002,3.18181818 L13.75,7 L7.50000002,10.8181818 Z"></path>
</svg>