<svg xmlns="http://www.w3.org/2000/svg" xmlns:xlink="http://www.w3.org/1999/xlink"><symbol id="angle_down" viewBox="0 0 5 4">
    <path d="M5,4 L4,4 L4,1 L0,1 L0,0 L5,0 L5,4 Z"/>
</symbol><symbol id="angle_right" viewBox="0 0 7 7">
    <path d="M0,7 L7,4.21854305 L7,2.78145695 L0,0 L0,1.31346578 L3.79716981,2.75055188 C4.63915094,3.07505519 5.99292453,3.49227373 5.99292453,3.49227373 L5.99292453,3.52317881 C5.99292453,3.52317881 4.63915094,3.95584989 3.79716981,4.2803532 L0,5.70198675 L0,7 Z"/>
</symbol><symbol id="arrow_down" viewBox="0 0 22 22">
  <path d="M19.6501263,10.0283843 L12.3728651,17.3062851 L12.3728651,1.37472607 C12.3728651,0.615687475 11.7572317,-2.50000092e-08 10.9982599,-2.50000092e-08 C10.239288,-2.50000092e-08 9.62365464,0.615687475 9.62365464,1.37472607 L9.62365464,17.3062851 L2.34639348,10.0283843 C1.80913217,9.49107567 0.93878947,9.49107567 0.402559371,10.0283843 C-0.133670727,10.5656928 -0.134701939,11.436112 0.402559371,11.9723892 L10.0268584,21.5975342 C10.1588535,21.7295409 10.3104417,21.828546 10.4723419,21.8955806 C10.8095481,22.0348064 11.1900653,22.0348064 11.5272715,21.8955806 C11.6471498,21.8460781 11.7606476,21.7785922 11.8647194,21.6939932 L11.972755,21.5965029 L21.597054,11.9713579 C22.1343153,11.4340494 22.1343153,10.5636302 21.597054,10.027353 C21.0956101,9.52682749 20.3040153,9.49256075 19.7647231,9.9270682 L19.6501263,10.0283843 Z"/>
</symbol><symbol id="arrow_left" viewBox="0 0 22 22">
    <path d="M11.9716157,19.6501263 L4.69371492,12.3728651 L20.6252739,12.3728651 C21.3843125,12.3728651 22,11.7572317 22,10.9982599 C22,10.239288 21.3843125,9.62365464 20.6252739,9.62365464 L4.69371492,9.62365464 L11.9716157,2.34639348 C12.5089243,1.80913217 12.5089243,0.93878947 11.9716157,0.402559371 C11.4343072,-0.133670727 10.563888,-0.134701939 10.0276108,0.402559371 L0.40246575,10.0268584 C0.270459047,10.1588535 0.171454019,10.3104417 0.104419365,10.4723419 C-0.034806455,10.8095481 -0.034806455,11.1900653 0.104419365,11.5272715 C0.170422717,11.6871093 0.268396442,11.8356038 0.396277936,11.9655365 C0.399371843,11.9686301 0.400403145,11.9696613 0.403497053,11.972755 L10.0286421,21.597054 C10.5659506,22.1343153 11.4363698,22.1343153 11.972647,21.597054 C12.5089243,21.0597927 12.5099556,20.18945 11.972647,19.6532199 L11.9716157,19.6501263 Z"/>
</symbol><symbol id="arrow_right" viewBox="0 0 22 22">
    <path d="M10.0284914,2.34803142 L17.30647,9.62597487 L1.37474075,9.62597487 C0.615694094,9.62597487 0,10.241666 0,11.000709 C0,11.759752 0.615694094,12.3754431 1.37474075,12.3754431 L17.30647,12.3754431 L10.0284914,19.6533865 C9.49117714,20.1906982 9.49117714,21.0611225 10.0284914,21.5974029 C10.5658057,22.1336833 11.4362342,22.1347146 11.9725172,21.5974029 L21.597765,11.9722015 C21.7297731,11.840194 21.8287792,11.6875604 21.8958146,11.525645 C21.96285,11.3606356 21.9989459,11.1863445 22,11.0110221 C22.0010086,10.8284805 21.9669752,10.6449076 21.8958146,10.4747417 C21.8287792,10.3128263 21.7297731,10.1601926 21.597765,10.0281851 L11.9725172,0.402983761 C11.4352029,-0.13432792 10.5647744,-0.13432792 10.0284914,0.402983761 C9.49220845,0.940295442 9.49117714,1.81071974 10.0284914,2.34700011 L10.0284914,2.34803142 Z"/>
</symbol><symbol id="arrow_up" viewBox="0 0 22 22">
  <path d="M2.34987367,11.9716157 L9.62713487,4.6937149 L9.62713487,20.6252739 C9.62713487,21.3843125 10.2427683,22 11.0017401,22 C11.760712,22 12.3763453,21.3843125 12.3763453,20.6252739 L12.3763453,4.6937149 L19.6536065,11.9716157 C20.1908678,12.5089243 21.0612105,12.5089243 21.5974406,11.9716157 C22.1336707,11.4343072 22.1347019,10.563888 21.5974406,10.0276108 L11.9731416,0.402465725 C11.8411465,0.270459022 11.6895583,0.171453994 11.5276581,0.10441934 C11.1904519,-0.03480648 10.8099347,-0.03480648 10.4727285,0.10441934 C10.3528501,0.153921854 10.2393524,0.221407703 10.1352805,0.306006725 L10.027245,0.403497028 L10.027245,0.403497028 L0.402945975,10.0286421 C-0.134315325,10.5659506 -0.134315325,11.4363698 0.402945975,11.972647 C0.904389855,12.4731725 1.69598464,12.5074392 2.23527691,12.0729317 L2.34987367,11.9716157 Z"/>
</symbol><symbol id="building" viewBox="0 0 175 175">
    <path fill-rule="nonzero" d="M4.96987952 97C2.22518072 97 0 99.9998282 0 103.701031L0 168.298969C0 171.999278 2.22518072 175 4.96987952 175L22 175 22 97 4.96987952 97zM170.03012 97L153 97 153 175 170.03012 175C172.774819 175 175 171.999278 175 168.298969L175 103.701031C175 99.9998282 172.774819 97 170.03012 97zM119.012812 0L119.012812 21.1914062 92.163 21.191 92.1633541 34.7744141 149.972303 60.8665039C152.568095 62.0381836 153.716081 65.0774414 152.535738 67.6556152 151.670703 69.5450684 149.794683 70.6624023 147.832263 70.6624023 147.206981 70.6624023 146.573265 70.5488297 145.960171 70.3109223L145.698764 70.2013184 141.937775 68.5036133 141.937775 169.873047C141.937775 172.631558 139.743002 174.881912 136.992673 174.995501L136.774417 175 109 175 109 109 65 109 65 175 37.2255761 175C34.4471426 175 32.1811279 172.820377 32.0667487 170.089739L32.0622188 169.873047 32.0622188 68.5032715 28.3012293 70.2009766C25.7057817 71.3723145 22.644255 70.2331055 21.4642557 67.6552734 20.3158134 65.1471125 21.3715461 62.2021307 23.8207281 60.9655516L24.0280347 60.8665039 81.8366394 34.7744141 81.8366394 0 119.012812 0z"/>
    <rect width="25" height="54" x="75" y="121"/>
</symbol><symbol id="caret_down" viewBox="0 0 12 8">
	<polygon id="Path" points="12 2.13758312e-07 5.99999988 8 0 0"/>
</symbol><symbol id="caret_left" viewBox="0 0 8 16">
    <polygon fill-rule="nonzero" points="8 16 0 8 8 0"/>
</symbol><symbol id="caret_right" viewBox="0 0 8 16">
    <polygon points="0 16 8 8.00000003 0 0"/>
</symbol><symbol id="clock" viewBox="0 0 16 16">
    <path d="M8,0 C12.411198,0 16,3.58880199 16,8 C16,12.411198 12.411198,16 8,16 C3.58880199,16 0,12.411198 0,8 C0,3.58880199 3.58880199,0 8,0 Z M8.00000002,14.2977358 C11.4725402,14.2977358 14.2979004,11.4727048 14.2979004,8.00000002 C14.2979004,4.5272952 11.4725402,1.70226431 8.00000002,1.70226431 C4.52745987,1.70226431 1.70209963,4.5272952 1.70209963,8.00000002 C1.70209963,11.4727048 4.52745987,14.2977358 8.00000002,14.2977358 Z M12.1692878,7.75298479 C12.533059,7.75298479 12.8279951,8.04792098 12.8279951,8.41169208 C12.8279951,8.77546318 12.533059,9.07039936 12.1692878,9.07039936 L7.91535613,9.07039936 C7.55158503,9.07039936 7.25664885,8.77546318 7.25664885,8.41169208 L7.25664885,3.43021821 C7.25664885,3.06644711 7.55158503,2.77151092 7.91535613,2.77151092 C8.27912724,2.77151092 8.57406343,3.06644711 8.57406343,3.43021821 L8.57406343,7.75298479 L12.1692878,7.75298479 Z"/>
</symbol><symbol id="close" viewBox="0 0 20 20">
    <polygon id="Path" points="10 7.45454547 17.4545455 0 20 2.54545455 12.5454545 10 20 17.4545455 17.4545455 20 10 12.5454545 2.54545455 20 0 17.4545455 7.45454547 10 0 2.54545455 2.54545455 0"/>
</symbol><symbol id="expand" viewBox="0 0 9 18">
    <path d="M4.5,2.83 L7.60784314,6 L8.99019608,4.59 L4.5,0 L0,4.59 L1.39215686,6 L4.5,2.83 Z M4.5,15.17 L1.39215686,12 L0.00980392157,13.41 L4.5,18 L9,13.41 L7.60784314,12 L4.5,15.17 Z"/>
</symbol><symbol id="external" viewBox="0 0 18 18">
    <path d="M16,16 L2,16 L2,2 L9,2 L9,0 L2,0 C0.89,0 0,0.9 0,2 L0,16 C0,17.1 0.89,18 2,18 L16,18 C17.1,18 18,17.1 18,16 L18,9 L16,9 L16,16 Z M11,0 L11,2 L14.59,2 L4.76,11.83 L6.17,13.24 L16,3.41 L16,7 L18,7 L18,0 L11,0 Z"/>
</symbol><symbol id="facebook" viewBox="0 0 32 32">
    <path d="M31.998,16.098104 C31.998,7.20737037 24.835,0 15.999,0 C7.163,0 0,7.20737037 0,16.098104 C0,24.1325661 5.851,30.7925667 13.499,32 L13.499,20.7507468 L9.437,20.7507468 L9.437,16.0970978 L13.499,16.0970978 L13.499,12.5502626 C13.499,8.51542307 15.888,6.28670251 19.542,6.28670251 C21.292,6.28670251 23.123,6.60063516 23.123,6.60063516 L23.123,10.5620225 L21.106,10.5620225 C19.119,10.5620225 18.499,11.8026601 18.499,13.075496 L18.499,16.0950854 L22.936,16.0950854 L22.227,20.7487344 L18.499,20.7487344 L18.499,31.9979876 C26.148,30.7905544 31.998,24.1305537 31.998,16.0960916 L31.998,16.098104 Z"/>
</symbol><symbol id="fax" viewBox="0 0 18 16">
    <path d="M17.2652941,2.71214604 C16.5305882,2.71214604 15.7959118,2.71214604 15.0612059,2.71214604 C15.0612059,2.05310487 15.0612059,1.39409302 15.0612059,0.735051848 C15.0612059,0.33063356 14.7322941,0.00278388278 14.3265,0.00278388278 C10.7754706,0.00278388278 7.22447059,0.00278388278 3.67344118,0.00278388278 C3.26767647,0.00278388278 2.93873529,0.330604245 2.93873529,0.735051848 C2.93873529,1.39409302 2.93873529,2.05310487 2.93873529,2.71214604 C2.20402941,2.71214604 1.46935294,2.71214604 0.734647059,2.71214604 C0.328911765,2.71214604 0,3.03999571 0,3.444414 C0,5.83645027 0,8.22848655 0,10.6205228 C0,11.0249411 0.328911765,11.3527908 0.734705882,11.3527908 C1.46941176,11.3527908 2.20408824,11.3527908 2.93879412,11.3527908 C2.93879412,12.2174415 2.93879412,13.0820923 2.93879412,13.9467723 C2.93879412,14.368486 2.93879412,14.7901703 2.93879412,15.211884 C2.93879412,15.4560124 2.98832353,15.6381413 3.17764706,15.8107138 C3.26582353,15.8910933 3.35997059,15.9432139 3.47497059,15.9754009 C3.58147059,16.0051547 3.68673529,16.0027366 3.79438235,16.0027366 C5.52958824,16.0027366 7.26479412,16.0027366 8.99997059,16.0027366 C10.7351471,16.0027366 12.4703824,16.0027366 14.2055588,16.0027366 C14.3132647,16.0027366 14.4186176,16.0051547 14.5251765,15.9753716 C14.6402647,15.9431552 14.7345,15.8909174 14.8226471,15.8104207 C15.012,15.6376137 15.0611765,15.4551916 15.0611765,15.2110339 C15.0611765,14.789115 15.0611765,14.3671376 15.0611765,13.9452187 C15.0611765,13.0810956 15.0611765,12.2169431 15.0611765,11.3528201 C15.7958824,11.3528201 16.5305588,11.3528201 17.2652647,11.3528201 C17.6710294,11.3528201 17.9999706,11.0249997 17.9999706,10.6205521 C17.9999706,8.22851586 17.9999706,5.83647959 17.9999706,3.44444332 C17.9999706,3.04002503 17.6710882,2.71214604 17.2652941,2.71214604 Z M1.83673529,5.29334664 C1.48170588,5.29334664 1.19388235,5.00647818 1.19388235,4.65262684 C1.19388235,4.29877549 1.48170588,4.01190703 1.83673529,4.01190703 C2.19176471,4.01190703 2.47958824,4.29877549 2.47958824,4.65262684 C2.47958824,5.00647818 2.19176471,5.29334664 1.83673529,5.29334664 Z M14.3265294,15.2703364 L3.67347059,15.2703364 L3.67347059,9.48553678 L14.3265294,9.48553678 L14.3265294,15.2703364 Z M14.3265588,2.71214604 C10.7755,2.71214604 7.2245,2.71214604 3.67347059,2.71214604 C3.67347059,2.29720397 3.67347059,1.88223258 3.67347059,1.46731982 C3.67347059,1.06290153 4.00238235,0.735051848 4.40817647,0.735051848 C7.46938235,0.735051848 10.5306471,0.735051848 13.5918529,0.735051848 C13.9976176,0.735051848 14.3265588,1.06287221 14.3265588,1.46731982 C14.3265588,1.88229121 14.3265588,2.29723328 14.3265588,2.71214604 Z"/>
</symbol><symbol id="file" viewBox="0 0 16 20">
    <path d="M2,0 C0.9,0 0.01,0.9 0.01,2 L0,18 C0,19.1 0.89,20 1.99,20 L14,20 C15.1,20 16,19.1 16,18 L16,6 L10,0 L2,0 Z M9,7 L9,1.5 L14.5,7 L9,7 Z"/>
</symbol><symbol id="flickr" viewBox="0 0 22 10">
    <path d="M22,5.001 C22,7.76175 19.7934,10 17.0695556,10 C14.3466889,10 12.1393556,7.76175 12.1393556,5.001 C12.1393556,2.23875 14.3466889,0 17.0695556,0 C19.7934,0 22,2.23875 22,5.001 Z M4.9302,0 C2.20733333,0 0,2.23875 0,5.001 C0,7.76175 2.20733333,10 4.9302,10 C7.65306667,10 9.8604,7.76175 9.8604,5.001 C9.8604,2.23875 7.65306667,0 4.9302,0 Z"/>
</symbol><symbol id="home" viewBox="0 0 10 10">
    <path d="M9.98961019,5.08666992 C9.9554305,5.16479492 9.87242269,5.21362305 9.78941488,5.21362305 L8.74937581,5.21362305 L8.74937581,9.79370117 C8.74937581,9.91088867 8.65660238,10.0036621 8.53941488,10.0036621 L6.45933675,10.0036621 C6.34214925,10.0036621 6.24937581,9.91088867 6.24937581,9.79370117 L6.24937581,6.25366211 L3.74937581,6.25366211 L3.74937581,9.79370117 C3.74937581,9.91088867 3.65660238,10.0036621 3.53941488,10.0036621 L1.45933675,10.0036621 C1.34214925,10.0036621 1.24937581,9.91088867 1.24937581,9.79370117 L1.24937581,5.21362305 L0.209336751,5.21362305 C0.126328938,5.21362305 0.0433211259,5.16479492 0.00914143838,5.08666992 C-0.0103898116,5.00366211 -0.000624186616,4.9206543 0.0579695634,4.85229492 L4.84800863,0.0622558594 C4.93101644,-0.0207519531 5.06773519,-0.0207519531 5.150743,0.0622558594 L9.94078206,4.85229492 C9.99937581,4.9206543 10.0091414,5.00366211 9.98961019,5.08666992 Z"/>
</symbol><symbol id="instagram" viewBox="0 0 18 18">
	<g>
		<path d="M13.0325442,0 L4.96724277,0 C2.22830676,0 0,2.22841324 0,4.96734925 L0,13.0326507 C0,15.7716932 2.22830676,18 4.96724277,18 L13.0325442,18 C15.7716932,18 18,15.7715867 18,13.0326507 L18,4.96734925 C18,2.22841324 15.7716932,0 13.0325442,0 Z M16.4030591,13.0326507 C16.4030591,14.8910813 14.8910813,16.4029528 13.0326507,16.4029528 L4.96724277,16.4029528 C3.10891862,16.4029528 1.59704723,14.8910813 1.59704723,13.0326507 L1.59704723,4.96734925 C1.59704723,3.10902508 3.10891862,1.59704723 4.96724277,1.59704723 L13.0325442,1.59704723 C14.8909749,1.59704723 16.4030591,3.10902508 16.4030591,4.96734925 L16.4030591,13.0326507 L16.4030591,13.0326507 Z" id="Shape"/>
		<path d="M9,4 C6.24295848,4 4,6.24300997 4,9.00011479 C4,11.7571049 6.24295848,14 9,14 C11.7570416,14 14,11.7571049 14,9.00011479 C14,6.24300997 11.7570416,4 9,4 Z M9.00000001,12.2782012 C7.19238804,12.2782012 5.72164451,10.8076534 5.72164451,9.00000001 C5.72164451,7.19223177 7.19227326,5.72156926 9.00000001,5.72156926 C10.8077267,5.72156926 12.2783555,7.19223177 12.2783555,9.00000001 C12.2783555,10.8076534 10.807612,12.2782012 9.00000001,12.2782012 Z" id="Shape"/>
		<path d="M14,3 C13.7372727,3 13.4791818,3.10636364 13.2936364,3.29272728 C13.1071818,3.47818182 13,3.73636364 13,4 C13,4.26281818 13.1072727,4.52090909 13.2936364,4.70727272 C13.4790909,4.89272727 13.7372727,5 14,5 C14.2636363,5 14.5209091,4.89272727 14.7072727,4.70727272 C14.8936363,4.52090909 15,4.26272728 15,4 C15,3.73636364 14.8936363,3.47818182 14.7072727,3.29272728 C14.5218182,3.10636364 14.2636363,3 14,3 Z"/>
	</g>
</symbol><symbol id="label" viewBox="0 0 14 14">
    <path d="M13.6583021,7.43892413 L7.05097794,0.840917918 C6.81680307,0.60664811 6.50268183,0.408046349 6.10842003,0.244853703 C5.71402876,0.0816286898 5.35365515,0 5.02710501,0 L1.18285014,0 C0.862449716,0 0.5852268,0.117134904 0.35111666,0.351113413 C0.11700652,0.585221388 0,0.86244174 0,1.1828392 L0,5.02705852 C0,5.35357328 0.0815323438,5.71384645 0.2448236,6.10823408 C0.408114856,6.5026217 0.606750821,6.8135681 0.840925695,7.04159114 L7.44815277,13.6580787 C7.67611319,13.886037 7.95314191,14 8.27988625,14 C8.59999538,14 8.88055209,13.886037 9.12077958,13.6580787 L13.6581727,9.11153547 C13.8861331,8.88348006 14,8.60648628 14,8.27993915 C14,7.95957405 13.8861331,7.6792465 13.6583021,7.43892413 Z M3.79340639,3.79340368 C3.56224164,4.02443682 3.28356221,4.14001813 2.95701207,4.14001813 C2.63059139,4.14001813 2.35178249,4.02443682 2.12074721,3.79340368 C1.88971193,3.56233817 1.77422666,3.28366132 1.77422666,2.95714656 C1.77422666,2.63059943 1.88971193,2.35182548 2.12074721,2.12088944 C2.35181486,1.88982393 2.63059139,1.77424262 2.95701207,1.77424262 C3.28356221,1.77424262 3.56233874,1.88982393 3.79340639,2.12088944 C4.02434457,2.35182548 4.13992694,2.6306318 4.13992694,2.95714656 C4.13992694,3.28366132 4.02447404,3.56233817 3.79340639,3.79340368 Z"/>
</symbol><symbol id="linkedin" viewBox="0 0 18 18">
    <path d="M15.0146745,9.15966839 C14.8611565,8.71573057 14.6499749,8.34789637 14.3813809,8.0561658 C14.1127242,7.76443523 13.7960931,7.54880829 13.4315189,7.40928497 C13.066882,7.26976166 12.6670952,7.2 12.2321585,7.2 C11.8866174,7.2 11.5860718,7.2412228 11.3301142,7.32366839 C11.0743761,7.40611399 10.8536624,7.51392746 10.6681613,7.64710881 C10.4826603,7.78029016 10.3259438,7.92298446 10.198012,8.07519171 C10.0700803,8.22739896 9.96136963,8.36692228 9.87178604,8.49376166 L9.87178604,7.39025907 L7.26200929,7.39025907 C7.27480247,7.60588601 7.28119906,8.02445596 7.28119906,8.64596891 L7.28119906,11.0052746 C7.28119906,11.0052746 7.27480247,12.4068497 7.26200929,15.21 L9.87178604,15.21 L9.87178604,10.8339482 C9.87178604,10.7197927 9.87821398,10.6089326 9.89100716,10.5010259 C9.90380034,10.3931813 9.92935534,10.2948808 9.96773486,10.2061865 C10.0700803,9.97781347 10.2267967,9.76227979 10.4378214,9.55921244 C10.6489089,9.35636269 10.9400163,9.25482902 11.3110184,9.25482902 C11.784366,9.25482902 12.1233852,9.41651813 12.328076,9.73995855 C12.5327982,10.0633368 12.6351436,10.4914819 12.6351436,11.0242383 L12.6351436,15.21 L15.2449517,15.21 L15.2449517,10.7197927 C15.2449517,10.1236477 15.1681613,9.60366839 15.0146745,9.15966839 Z M5.2754923,5.90213472 C5.54414901,5.63577202 5.67208078,5.31867358 5.6592876,4.95083938 C5.6592876,4.57032124 5.52815754,4.25005181 5.26589741,3.99003109 C5.00363728,3.73001036 4.64862662,3.6 4.20086543,3.6 C3.75310423,3.6 3.39489528,3.73001036 3.12623856,3.99003109 C2.85758184,4.25005181 2.72325348,4.57032124 2.72325348,4.95083938 C2.72325348,5.31867358 2.85118525,5.63577202 3.10704879,5.90213472 C3.36291233,6.16849741 3.7147247,6.30167876 4.1624859,6.30167876 L4.18167566,6.30167876 C4.64223003,6.30167876 5.00683557,6.16849741 5.2754923,5.90213472 Z M5.33306159,7.2 L2.72325348,7.2 L2.72325348,15.0196788 L5.33306159,15.0196788 L5.33306159,7.2 Z M17.8656403,0.123668394 C17.9551299,0.20611399 18,0.310756477 18,0.437595855 L18,17.560943 C18,17.6877824 17.9550985,17.7923316 17.8656403,17.8748705 C17.7761194,17.9573161 17.667346,17.9985078 17.5394143,17.9985078 L0.460554372,17.9985078 C0.332622601,17.9985078 0.223880597,17.9574093 0.134328358,17.8748705 C0.0447761195,17.7923316 0,17.6877824 0,17.560943 L0,0.437595855 C0,0.310756477 0.0447761195,0.20611399 0.134328358,0.123668394 C0.223880597,0.0412227979 0.332622601,0 0.460554372,0 L17.5394143,0 C17.667346,0 17.7761194,0.0412227979 17.8656403,0.123668394 Z"/>
</symbol><symbol id="logo" viewBox="0 0 602 549"><g fill="none">
<path d="M0.150024 0.290001V548.26H502.51C557.34 548.26 601.95 503.65 601.95 448.82V0.290001H0.150024ZM595.95 448.82C595.95 500.34 554.03 542.26 502.51 542.26H6.15002V6.29H595.95V448.82Z" fill="white"/>
<path d="M65.02 337C69.22 339.39 73.93 340.59 79.15 340.59C82.43 340.59 85.48 340.2 88.27 339.42C91.07 338.64 93.63 337.54 95.94 336.1L96.26 323.18H94.08L91.01 331.34C90.58 332.54 90.07 333.6 89.48 334.52C88.89 335.45 88.05 336.15 86.98 336.63C86.06 337.05 85.15 337.38 84.23 337.62C83.32 337.86 82.13 337.98 80.68 337.98C77.5 337.98 74.65 337.1 72.12 335.33C69.59 333.57 67.59 330.59 66.1 326.4C64.62 322.21 63.88 316.56 63.88 309.44C63.88 302.32 64.66 296.6 66.22 292.44C67.78 288.28 69.87 285.31 72.48 283.51C75.09 281.72 77.98 280.82 81.16 280.82C82.99 280.82 84.58 281.18 85.92 281.9C86.89 282.32 87.68 283.01 88.3 283.96C88.92 284.92 89.5 285.99 90.04 287.19L93.43 294.28H95.61L95.29 282.53C92.92 281.09 90.45 280 87.86 279.25C85.28 278.5 82.5 278.13 79.54 278.13C75.72 278.13 72.11 278.8 68.72 280.15C65.33 281.5 62.33 283.5 59.72 286.16C57.11 288.82 55.06 292.1 53.58 295.98C52.1 299.87 51.36 304.32 51.36 309.35C51.36 316.05 52.58 321.73 55.03 326.4C57.48 331.06 60.8 334.6 65 336.99L65.02 337Z" fill="white"/>
<path d="M120.15 337.36L117.73 336.55C116.71 336.25 115.98 335.73 115.55 334.98C115.12 334.23 114.9 333.29 114.9 332.16V308.65C115.28 307.57 115.69 306.63 116.15 305.82C116.61 305.01 117.1 304.31 117.64 303.71C118.29 302.87 118.95 302.5 119.62 302.59C120.29 302.68 120.9 303.08 121.44 303.8L121.6 303.98C123.16 306.13 125.02 307.21 127.17 307.21C128.62 307.21 129.86 306.69 130.88 305.64C131.9 304.59 132.41 303.05 132.41 301.02C132.41 299.17 131.9 297.64 130.88 296.44C129.86 295.24 128.32 294.65 126.28 294.65C124.83 294.65 123.37 295.1 121.92 296C120.47 296.9 119.12 298.06 117.88 299.5C116.64 300.94 115.62 302.49 114.81 304.16V303.53L114.08 295.63L113.11 294.64L99.95 299.84V301.45L101.16 301.81C102.24 302.05 102.96 302.51 103.34 303.2C103.72 303.89 103.93 304.89 103.99 306.21V332.5C103.99 333.7 103.79 334.65 103.38 335.37C102.98 336.09 102.24 336.6 101.16 336.89L99.95 337.34V339.04H120.14V337.34L120.15 337.36Z" fill="white"/>
<path d="M154.5 337.36L153.61 337.09C152.59 336.73 151.87 336.19 151.47 335.47C151.07 334.75 150.86 333.8 150.86 332.6V308.38L151.1 295.64L150.13 294.65L136 299.85V301.46L137.13 301.73C138.21 301.97 138.95 302.43 139.35 303.12C139.75 303.81 139.96 304.75 139.96 305.95C140.01 307.63 140.04 309.26 140.04 310.84V332.51C139.99 333.71 139.77 334.66 139.39 335.38C139.01 336.1 138.29 336.64 137.21 336.99L136 337.35V339.05H154.49V337.35L154.5 337.36Z" fill="white"/>
<path d="M145.3 289.72C147.08 289.72 148.58 289.09 149.82 287.84C151.06 286.58 151.68 285 151.68 283.08C151.68 281.16 151.06 279.51 149.82 278.28C148.58 277.06 147.08 276.44 145.3 276.44C143.52 276.44 142.02 277.06 140.78 278.28C139.54 279.51 138.92 281.11 138.92 283.08C138.92 285.05 139.54 286.58 140.78 287.84C142.02 289.1 143.53 289.72 145.3 289.72Z" fill="white"/>
<path d="M161.9 320.05C161.9 321.78 161.89 323.3 161.86 324.58C161.83 325.87 161.82 327.23 161.82 328.66C161.82 332.79 162.77 335.76 164.69 337.59C166.6 339.41 169.22 340.33 172.56 340.33C175.25 340.33 177.51 339.78 179.34 338.67C181.17 337.56 182.6 336.02 183.62 334.05L182.57 332.7C181.71 333.66 180.85 334.42 179.99 334.99C179.13 335.56 178.16 335.84 177.08 335.84C175.84 335.84 174.81 335.3 173.97 334.22C173.13 333.14 172.72 331.53 172.72 329.37V298.78H182.01V296H172.81L173.05 283.53H170.63L165.38 291.6C164.46 292.98 163.45 294.05 162.35 294.83C161.25 295.61 159.91 296.15 158.35 296.45L156.17 296.81V298.78H161.9V320.04V320.05Z" fill="white"/>
<path d="M205.17 337.36L204.28 337.09C203.26 336.73 202.54 336.19 202.14 335.47C201.74 334.75 201.53 333.8 201.53 332.6V308.38L201.77 295.64L200.8 294.65L186.67 299.85V301.46L187.8 301.73C188.88 301.97 189.62 302.43 190.02 303.12C190.42 303.81 190.63 304.75 190.63 305.95C190.68 307.63 190.71 309.26 190.71 310.84V332.51C190.66 333.71 190.44 334.66 190.06 335.38C189.68 336.1 188.96 336.64 187.88 336.99L186.67 337.35V339.05H205.16V337.35L205.17 337.36Z" fill="white"/>
<path d="M195.96 289.72C197.74 289.72 199.24 289.09 200.48 287.84C201.72 286.59 202.34 285 202.34 283.08C202.34 281.16 201.72 279.51 200.48 278.28C199.24 277.06 197.74 276.44 195.96 276.44C194.18 276.44 192.68 277.06 191.44 278.28C190.2 279.51 189.58 281.11 189.58 283.08C189.58 285.05 190.2 286.58 191.44 287.84C192.68 289.1 194.19 289.72 195.96 289.72Z" fill="white"/>
<path d="M217.69 337.68C220.65 339.44 223.96 340.33 227.62 340.33C231.28 340.33 234.74 339.39 237.51 337.5C240.28 335.62 242.34 332.88 243.69 329.29L242.4 328.21C241.05 330.18 239.57 331.7 237.96 332.74C236.34 333.79 234.3 334.31 231.82 334.31C227.62 334.31 224.53 332.76 222.53 329.65C220.54 326.54 219.54 322.08 219.54 316.28C219.54 309.52 220.44 304.63 222.25 301.61C224.05 298.59 226.65 297.08 230.04 297.08C230.95 297.08 231.67 297.26 232.18 297.62C232.69 297.98 233.05 298.67 233.27 299.68C233.38 300.46 233.39 301.27 233.31 302.1C233.23 302.94 233.22 303.95 233.27 305.15C233.43 307.01 233.98 308.53 234.93 309.73C235.87 310.93 237.1 311.52 238.6 311.52C240 311.52 241.14 311.07 242.03 310.17C242.92 309.27 243.36 307.99 243.36 306.31C243.36 304.34 242.79 302.47 241.66 300.7C240.53 298.94 238.89 297.49 236.73 296.35C234.58 295.21 231.97 294.64 228.9 294.64C225.13 294.64 221.67 295.55 218.52 297.38C215.37 299.2 212.85 301.82 210.97 305.23C209.08 308.64 208.14 312.76 208.14 317.61C208.14 322.46 208.99 326.57 210.68 329.95C212.37 333.33 214.7 335.9 217.66 337.67L217.69 337.68Z" fill="white"/>
<path d="M266.97 315.07C265.76 315.28 264.7 315.5 263.78 315.74C258.4 316.88 254.45 318.66 251.95 321.08C249.45 323.5 248.19 326.15 248.19 329.02C248.19 332.67 249.25 335.46 251.38 337.41C253.51 339.35 256.1 340.33 259.17 340.33C261.86 340.33 264.04 339.7 265.71 338.45C267.38 337.19 269.07 335.55 270.8 333.52C271.23 335.55 272.13 337.18 273.5 338.41C274.87 339.63 276.72 340.25 279.03 340.25C281.07 340.25 282.69 339.87 283.88 339.13C285.06 338.38 286.14 337.32 287.11 335.94L286.3 334.95H284.44C282.23 334.95 281.13 333.66 281.13 331.09V311.08C281.13 305.28 279.86 301.09 277.33 298.52C274.8 295.95 271.14 294.66 266.35 294.66C263.44 294.66 260.74 295.08 258.24 295.92C255.74 296.76 253.73 298.01 252.22 299.69C250.71 301.37 249.96 303.43 249.96 305.88C249.96 307.38 250.41 308.59 251.29 309.51C252.18 310.44 253.3 310.9 254.64 310.9C256.09 310.9 257.3 310.35 258.27 309.24C259.24 308.13 259.8 306.38 259.97 303.99L260.21 302.82C260.43 300.85 260.9 299.43 261.62 298.56C262.35 297.69 263.33 297.26 264.57 297.26H264.81C266.8 297.26 268.25 298.04 269.17 299.59C270.08 301.15 270.54 303.96 270.54 308.02V314.39C269.35 314.63 268.16 314.85 266.95 315.06L266.97 315.07ZM270.56 331.08C269.11 332.34 267.89 333.23 266.93 333.77C265.96 334.31 264.94 334.58 263.86 334.58C262.3 334.58 261.02 334 260.02 332.83C259.02 331.66 258.53 329.88 258.53 327.49C258.53 324.74 259.24 322.56 260.67 320.94C262.09 319.32 263.97 318.22 266.28 317.62C267.73 317.26 269.16 316.96 270.56 316.72V331.07V331.08Z" fill="white"/>
<path d="M309.04 337.36L307.91 337C306.89 336.7 306.18 336.18 305.77 335.43C305.37 334.68 305.14 333.71 305.08 332.51V289.54L305.4 276.89L304.35 276.08L290.22 279.85V281.55L291.43 281.91C292.51 282.21 293.23 282.67 293.61 283.3C293.99 283.93 294.18 284.87 294.18 286.13V320.22C294.18 322.25 294.17 324.3 294.14 326.37C294.11 328.43 294.1 330.48 294.1 332.52C294.1 334.85 293.21 336.35 291.43 337.01L290.22 337.37V339.07H309.03V337.37L309.04 337.36Z" fill="white"/>
<path d="M55.29 413.94C54.94 414.63 54.23 415.18 53.15 415.6L51.54 416.14V418.02H71.73V416.14L70.11 415.6C69.09 415.18 68.39 414.63 68.01 413.94C67.63 413.25 67.45 412.28 67.45 411.02V365.71C67.45 364.46 67.64 363.48 68.01 362.79C68.39 362.1 69.09 361.55 70.11 361.13L71.73 360.59V358.71H51.54V360.59L53.15 361.13C54.23 361.55 54.94 362.1 55.29 362.79C55.64 363.48 55.81 364.45 55.81 365.71V411.02C55.81 412.28 55.63 413.25 55.29 413.94Z" fill="white"/>
<path d="M89.6 374.59L88.63 373.6L75.55 378.8V380.41L76.84 380.77C77.92 381.01 78.62 381.47 78.94 382.16C79.26 382.85 79.45 383.82 79.51 385.08V411.55C79.51 413.88 78.62 415.35 76.84 415.94L75.55 416.3V418H94.04V416.3L93.23 416.03C91.35 415.43 90.4 413.97 90.4 411.63V382.74C93.25 380.17 96 378.88 98.64 378.88C100.52 378.88 101.87 379.36 102.68 380.32C103.49 381.28 103.89 382.8 103.89 384.9V411.55C103.89 413.82 103 415.29 101.22 415.94L100.01 416.3V418H118.58V416.3L117.69 416.03C115.75 415.43 114.78 413.97 114.78 411.63V386.69C114.78 382.27 113.82 378.97 111.91 376.82C110 374.67 107.27 373.59 103.71 373.59C101.39 373.59 99.04 374.2 96.64 375.43C94.24 376.66 92.08 378.23 90.14 380.14L89.58 374.58L89.6 374.59Z" fill="white"/>
<path d="M127.66 371.19C127.44 372.44 127.09 373.42 126.61 374.11C126.12 374.8 125.34 375.23 124.27 375.41L122.49 375.77V377.74H127.09V399.18C127.09 401.21 127.08 403.26 127.05 405.33C127.02 407.39 127.01 409.47 127.01 411.57C126.96 413.84 125.85 415.31 123.7 415.96L122.49 416.32V418.02H143.32V416.32L141.22 415.69C139.07 415.15 137.99 413.69 137.99 411.29C137.99 409.26 137.98 407.24 137.95 405.23C137.92 403.23 137.91 401.21 137.91 399.17V377.73H147.2V374.95H137.91C137.96 372.14 138.11 369.45 138.35 366.88C138.59 364.31 138.93 362.07 139.36 360.15C139.63 359.13 140.09 358.53 140.73 358.36C141.37 358.18 142.02 358.54 142.67 359.44L143.64 360.7C145.52 363.93 147.7 365.55 150.18 365.55C151.74 365.55 152.94 365.09 153.77 364.16C154.6 363.23 155.02 361.99 155.02 360.44C155.02 358.23 154.14 356.66 152.4 355.73C150.66 354.8 148.73 354.34 146.63 354.34C144.53 354.34 142.27 354.76 140.01 355.6C137.75 356.44 135.62 357.93 133.63 360.09C132.23 361.58 131.03 363.22 130.04 364.98C129.04 366.74 128.25 368.82 127.66 371.22V371.19Z" fill="white"/>
<path d="M181.72 384.6C182.74 383.55 183.26 382.01 183.26 379.98C183.26 378.13 182.75 376.6 181.72 375.4C180.7 374.2 179.16 373.61 177.12 373.61C175.67 373.61 174.21 374.06 172.76 374.96C171.31 375.86 169.96 377.02 168.72 378.46C167.48 379.9 166.46 381.45 165.65 383.12V382.49L164.92 374.59L163.95 373.6L150.79 378.8V380.41L152 380.77C153.08 381.01 153.8 381.47 154.18 382.16C154.56 382.85 154.77 383.85 154.83 385.17V411.46C154.83 412.66 154.63 413.61 154.22 414.33C153.82 415.05 153.08 415.56 152 415.85L150.79 416.3V418H170.98V416.3L168.56 415.49C167.54 415.19 166.81 414.67 166.38 413.92C165.95 413.17 165.73 412.23 165.73 411.1V387.59C166.11 386.51 166.52 385.57 166.98 384.76C167.44 383.95 167.93 383.25 168.47 382.65C169.12 381.81 169.78 381.44 170.45 381.53C171.12 381.62 171.73 382.02 172.27 382.74L172.43 382.92C173.99 385.07 175.85 386.15 178 386.15C179.45 386.15 180.69 385.63 181.71 384.58L181.72 384.6Z" fill="white"/>
<path d="M197.2 419.27C199.89 419.27 202.07 418.64 203.74 417.39C205.41 416.13 207.1 414.49 208.83 412.46C209.26 414.49 210.16 416.12 211.53 417.35C212.9 418.57 214.75 419.19 217.06 419.19C219.1 419.19 220.72 418.81 221.91 418.07C223.09 417.32 224.17 416.26 225.14 414.88L224.33 413.89H222.47C220.26 413.89 219.16 412.6 219.16 410.03V390.02C219.16 384.22 217.89 380.03 215.36 377.46C212.83 374.89 209.17 373.6 204.38 373.6C201.47 373.6 198.77 374.02 196.27 374.86C193.77 375.7 191.76 376.95 190.25 378.63C188.74 380.31 187.99 382.37 187.99 384.82C187.99 386.32 188.44 387.53 189.32 388.45C190.21 389.38 191.33 389.84 192.67 389.84C194.12 389.84 195.33 389.29 196.3 388.18C197.27 387.07 197.83 385.32 198 382.93L198.24 381.76C198.46 379.79 198.93 378.37 199.65 377.5C200.38 376.63 201.36 376.2 202.6 376.2H202.84C204.83 376.2 206.28 376.98 207.2 378.53C208.11 380.09 208.57 382.9 208.57 386.96V393.33C207.38 393.57 206.19 393.79 204.98 394C203.77 394.21 202.71 394.43 201.79 394.67C196.41 395.81 192.46 397.59 189.96 400.01C187.46 402.43 186.2 405.08 186.2 407.95C186.2 411.6 187.26 414.39 189.39 416.34C191.52 418.28 194.11 419.26 197.18 419.26L197.2 419.27ZM198.69 399.89C200.11 398.27 201.99 397.17 204.3 396.57C205.75 396.21 207.18 395.91 208.58 395.67V410.02C207.13 411.28 205.91 412.17 204.95 412.71C203.99 413.25 202.96 413.52 201.88 413.52C200.32 413.52 199.04 412.94 198.04 411.77C197.04 410.6 196.55 408.82 196.55 406.43C196.55 403.68 197.26 401.5 198.69 399.88V399.89Z" fill="white"/>
<path d="M230.5 380.56C229.26 382.68 228.64 385.03 228.64 387.6C228.64 390.89 229.57 393.63 231.42 395.81C233.27 397.99 235.79 399.62 238.97 400.7L242.52 401.96C245.43 402.98 247.45 404.08 248.58 405.28C249.71 406.48 250.28 408.03 250.28 409.94C250.28 412.03 249.52 413.69 248.02 414.92C246.51 416.15 244.49 416.76 241.96 416.76C239.91 416.76 238.23 416.22 236.91 415.15C235.59 414.07 234.42 412.43 233.4 410.22L230.98 405.11H228.8V415.7C230.68 416.84 232.66 417.72 234.74 418.35C236.81 418.98 239.14 419.29 241.72 419.29C247.26 419.29 251.56 417.99 254.6 415.39C257.64 412.79 259.16 409.36 259.16 405.12C259.16 401.95 258.32 399.23 256.66 396.96C254.99 394.69 252.19 392.86 248.26 391.49L244.79 390.32C242.04 389.3 240.05 388.21 238.81 387.04C237.57 385.87 236.95 384.36 236.95 382.51C236.95 380.54 237.69 379 239.17 377.89C240.65 376.78 242.36 376.23 244.3 376.23C246.13 376.23 247.49 376.6 248.38 377.35C249.27 378.1 250.14 379.43 251 381.34L253.5 386.45H255.6L256.09 376.85C254.31 375.83 252.5 375.04 250.64 374.47C248.78 373.9 246.75 373.62 244.54 373.62C241.15 373.62 238.27 374.25 235.9 375.5C233.53 376.76 231.73 378.45 230.49 380.57L230.5 380.56Z" fill="white"/>
<path d="M284.9 413.94C284.04 414.51 283.07 414.79 281.99 414.79C280.75 414.79 279.72 414.25 278.88 413.17C278.04 412.09 277.63 410.48 277.63 408.32V377.73H286.92V374.95H277.72L277.96 362.48H275.54L270.29 370.55C269.37 371.93 268.36 373 267.26 373.78C266.16 374.56 264.82 375.1 263.26 375.4L261.08 375.76V377.73H266.81V398.99C266.81 400.72 266.8 402.24 266.77 403.52C266.74 404.81 266.73 406.17 266.73 407.6C266.73 411.73 267.68 414.7 269.6 416.53C271.51 418.35 274.13 419.27 277.47 419.27C280.16 419.27 282.42 418.72 284.25 417.61C286.08 416.5 287.51 414.96 288.53 412.99L287.48 411.64C286.62 412.6 285.76 413.36 284.9 413.93V413.94Z" fill="white"/>
<path d="M306.41 382.49L305.68 374.59L304.71 373.6L291.55 378.8V380.41L292.76 380.77C293.84 381.01 294.56 381.47 294.94 382.16C295.32 382.85 295.53 383.85 295.59 385.17V411.46C295.59 412.66 295.39 413.61 294.98 414.33C294.58 415.05 293.84 415.56 292.76 415.85L291.55 416.3V418H311.74V416.3L309.32 415.49C308.3 415.19 307.57 414.67 307.14 413.92C306.71 413.17 306.49 412.23 306.49 411.1V387.59C306.87 386.51 307.28 385.57 307.74 384.76C308.2 383.95 308.69 383.25 309.23 382.65C309.88 381.81 310.54 381.44 311.21 381.53C311.88 381.62 312.49 382.02 313.03 382.74L313.19 382.92C314.75 385.07 316.61 386.15 318.76 386.15C320.21 386.15 321.45 385.63 322.47 384.58C323.49 383.53 324.01 381.99 324.01 379.96C324.01 378.11 323.5 376.58 322.47 375.38C321.45 374.18 319.91 373.59 317.87 373.59C316.42 373.59 314.96 374.04 313.51 374.94C312.06 375.84 310.71 377 309.47 378.44C308.23 379.88 307.21 381.43 306.4 383.1V382.47L306.41 382.49Z" fill="white"/>
<path d="M330.51 380.34C330.89 380.94 331.07 381.9 331.07 383.21L330.83 405.73C330.78 409.02 331.25 411.67 332.24 413.67C333.24 415.67 334.59 417.11 336.32 417.98C338.04 418.85 339.95 419.28 342.05 419.28C344.74 419.28 347.16 418.71 349.32 417.58C351.48 416.45 353.46 415.01 355.3 413.27L356.03 418.92L369.68 418.02V416.32L368.63 415.96C367.61 415.6 366.95 415.05 366.65 414.3C366.35 413.55 366.21 412.55 366.21 411.29V387.78L366.45 375.13L365.56 374.14L352.08 377.28V378.9L352.97 379.17C353.94 379.47 354.6 379.89 354.95 380.43C355.3 380.97 355.47 381.93 355.47 383.3L355.23 410.93C353.88 411.95 352.58 412.71 351.31 413.22C350.04 413.73 348.63 413.98 347.07 413.98C345.51 413.98 344.31 413.52 343.31 412.59C342.31 411.66 341.82 410.18 341.82 408.15V387.78L342.22 375.13L341.33 374.14L327.52 377.1V378.71L328.49 379.07C329.46 379.31 330.13 379.73 330.51 380.33V380.34Z" fill="white"/>
<path d="M382.3 416.63C385.26 418.39 388.57 419.28 392.23 419.28C395.89 419.28 399.35 418.34 402.12 416.45C404.89 414.57 406.95 411.83 408.3 408.24L407.01 407.16C405.66 409.13 404.18 410.65 402.57 411.69C400.95 412.74 398.91 413.26 396.43 413.26C392.23 413.26 389.14 411.71 387.14 408.6C385.15 405.49 384.15 401.03 384.15 395.23C384.15 388.47 385.05 383.58 386.86 380.56C388.66 377.54 391.26 376.03 394.65 376.03C395.56 376.03 396.28 376.21 396.79 376.57C397.3 376.93 397.66 377.62 397.88 378.63C397.99 379.41 398 380.22 397.92 381.05C397.84 381.89 397.83 382.9 397.88 384.1C398.04 385.96 398.59 387.48 399.54 388.68C400.48 389.88 401.71 390.47 403.21 390.47C404.61 390.47 405.75 390.02 406.64 389.12C407.53 388.22 407.97 386.94 407.97 385.26C407.97 383.29 407.4 381.42 406.27 379.65C405.14 377.89 403.5 376.44 401.34 375.3C399.19 374.16 396.58 373.6 393.51 373.6C389.74 373.6 386.28 374.51 383.13 376.34C379.98 378.16 377.46 380.78 375.58 384.19C373.69 387.6 372.75 391.72 372.75 396.57C372.75 401.42 373.6 405.53 375.29 408.91C376.98 412.29 379.31 414.86 382.27 416.63H382.3Z" fill="white"/>
<path d="M416.48 399C416.48 400.73 416.47 402.25 416.44 403.53C416.41 404.82 416.4 406.18 416.4 407.61C416.4 411.74 417.36 414.71 419.27 416.54C421.18 418.36 423.8 419.28 427.14 419.28C429.83 419.28 432.09 418.73 433.92 417.62C435.75 416.51 437.18 414.97 438.2 413L437.15 411.65C436.29 412.61 435.43 413.37 434.57 413.94C433.71 414.51 432.74 414.79 431.66 414.79C430.42 414.79 429.39 414.25 428.55 413.17C427.71 412.09 427.3 410.48 427.3 408.32V377.73H436.59V374.95H427.39L427.63 362.48H425.21L419.96 370.55C419.04 371.93 418.03 373 416.93 373.78C415.83 374.56 414.49 375.1 412.93 375.4L410.75 375.76V377.73H416.48V398.99V399Z" fill="white"/>
<path d="M443.88 380.34C444.26 380.94 444.44 381.9 444.44 383.21L444.2 405.73C444.15 409.02 444.62 411.67 445.61 413.67C446.61 415.67 447.96 417.11 449.69 417.98C451.41 418.85 453.32 419.28 455.42 419.28C458.11 419.28 460.53 418.71 462.69 417.58C464.85 416.45 466.83 415.01 468.67 413.27L469.4 418.92L483.05 418.02V416.32L482 415.96C480.98 415.6 480.32 415.05 480.02 414.3C479.72 413.55 479.58 412.55 479.58 411.29V387.78L479.82 375.13L478.93 374.14L465.45 377.28V378.9L466.34 379.17C467.31 379.47 467.97 379.89 468.32 380.43C468.67 380.97 468.84 381.93 468.84 383.3L468.6 410.93C467.25 411.95 465.95 412.71 464.68 413.22C463.41 413.73 462 413.98 460.44 413.98C458.88 413.98 457.68 413.52 456.68 412.59C455.68 411.66 455.19 410.18 455.19 408.15V387.78L455.59 375.13L454.7 374.14L440.89 377.1V378.71L441.86 379.07C442.83 379.31 443.5 379.73 443.88 380.33V380.34Z" fill="white"/>
<path d="M507.14 416.31L504.72 415.5C503.7 415.2 502.97 414.68 502.54 413.93C502.11 413.18 501.89 412.24 501.89 411.11V387.6C502.27 386.52 502.68 385.58 503.14 384.77C503.6 383.96 504.1 383.26 504.63 382.66C505.28 381.82 505.94 381.45 506.61 381.54C507.28 381.63 507.89 382.03 508.43 382.75L508.59 382.93C510.15 385.08 512.01 386.16 514.16 386.16C515.61 386.16 516.85 385.64 517.87 384.59C518.89 383.54 519.41 382 519.41 379.97C519.41 378.12 518.9 376.59 517.87 375.39C516.85 374.19 515.31 373.6 513.27 373.6C511.82 373.6 510.36 374.05 508.91 374.95C507.46 375.85 506.11 377.01 504.87 378.45C503.63 379.89 502.61 381.44 501.8 383.11V382.48L501.07 374.58L500.1 373.59L486.94 378.79V380.4L488.15 380.76C489.23 381 489.95 381.46 490.33 382.15C490.71 382.84 490.92 383.84 490.98 385.16V411.45C490.98 412.65 490.78 413.6 490.37 414.32C489.97 415.04 489.23 415.55 488.15 415.84L486.94 416.29V417.99H507.13V416.29L507.14 416.31Z" fill="white"/>
<path d="M530.88 416.58C533.79 418.37 537.15 419.27 540.97 419.27C544.79 419.27 548.09 418.36 550.86 416.53C553.63 414.71 555.83 412.15 557.44 408.86L556.15 407.51C554.75 409.3 553.22 410.69 551.55 411.68C549.88 412.67 547.7 413.16 545.01 413.16C541.13 413.16 538.19 411.81 536.17 409.12C534.15 406.43 533.12 402 533.06 395.84H557.36C557.52 395.24 557.63 394.6 557.68 393.91C557.73 393.22 557.76 392.49 557.76 391.71C557.76 388.18 557.1 385.06 555.78 382.34C554.46 379.62 552.59 377.48 550.17 375.92C547.75 374.37 544.84 373.59 541.45 373.59C538.06 373.59 534.92 374.5 531.88 376.33C528.84 378.15 526.36 380.77 524.45 384.18C522.54 387.59 521.58 391.75 521.58 396.65C521.58 401.55 522.4 405.43 524.04 408.81C525.68 412.19 527.96 414.78 530.86 416.57L530.88 416.58ZM534.23 382.89C534.9 380.41 535.82 378.67 536.97 377.69C538.13 376.7 539.49 376.21 541.05 376.21C543.9 376.21 545.84 377.56 546.86 380.25C547.88 382.94 548.1 387.31 547.51 393.35H533.06C533.17 388.86 533.56 385.38 534.23 382.9V382.89Z" fill="white"/>
<path d="M71 437.67H51.54V439.55L53.07 440.09C54.15 440.51 54.86 441.06 55.21 441.75C55.56 442.44 55.74 443.41 55.74 444.67C55.79 448.14 55.82 451.61 55.82 455.08V479.71C55.82 483.21 55.79 486.66 55.74 490.07C55.74 491.32 55.58 492.31 55.26 493.03C54.94 493.75 54.24 494.29 53.16 494.65L51.55 495.1V496.98H72.87V495.1L70.45 494.38C68.46 493.84 67.46 492.35 67.46 489.89C67.41 487.14 67.38 484.43 67.38 481.77V474.01H70.29C76.05 474.01 80.63 473.17 84.02 471.5C87.41 469.83 89.85 467.57 91.33 464.73C92.81 461.89 93.55 458.79 93.55 455.44C93.55 450.12 91.76 445.83 88.18 442.57C84.6 439.31 78.88 437.68 71.02 437.68L71 437.67ZM81.13 465.21C80.3 467.48 79.03 469.08 77.33 470.01C75.64 470.94 73.44 471.4 70.75 471.4H67.36V452.78C67.36 448.56 67.39 444.39 67.44 440.27H70.43C73.07 440.27 75.27 440.73 77.05 441.66C78.83 442.59 80.16 444.17 81.05 446.42C81.94 448.66 82.38 451.79 82.38 455.79C82.38 459.79 81.96 462.94 81.13 465.21Z" fill="white"/>
<path d="M132.56 492.84C130.35 492.84 129.25 491.55 129.25 488.98V468.97C129.25 463.17 127.98 458.98 125.45 456.41C122.92 453.84 119.26 452.55 114.47 452.55C111.56 452.55 108.86 452.97 106.36 453.81C103.86 454.65 101.85 455.9 100.34 457.58C98.83 459.26 98.08 461.32 98.08 463.77C98.08 465.27 98.53 466.48 99.41 467.4C100.3 468.33 101.42 468.79 102.76 468.79C104.21 468.79 105.42 468.24 106.39 467.13C107.36 466.02 107.92 464.27 108.09 461.88L108.33 460.71C108.55 458.74 109.02 457.32 109.74 456.45C110.47 455.58 111.45 455.15 112.69 455.15H112.93C114.92 455.15 116.37 455.93 117.29 457.48C118.2 459.04 118.66 461.85 118.66 465.91V472.28C117.47 472.52 116.28 472.74 115.07 472.95C113.86 473.16 112.8 473.38 111.88 473.62C106.5 474.76 102.55 476.54 100.05 478.96C97.55 481.38 96.29 484.03 96.29 486.9C96.29 490.55 97.35 493.34 99.48 495.29C101.61 497.23 104.2 498.21 107.27 498.21C109.96 498.21 112.14 497.58 113.81 496.33C115.48 495.07 117.17 493.43 118.9 491.4C119.33 493.43 120.23 495.06 121.6 496.29C122.97 497.51 124.82 498.13 127.13 498.13C129.17 498.13 130.79 497.75 131.98 497.01C133.16 496.26 134.24 495.2 135.21 493.82L134.4 492.83H132.54L132.56 492.84ZM118.67 488.98C117.22 490.24 116 491.13 115.04 491.67C114.07 492.21 113.05 492.48 111.97 492.48C110.41 492.48 109.13 491.9 108.13 490.73C107.13 489.56 106.64 487.78 106.64 485.39C106.64 482.64 107.35 480.46 108.78 478.84C110.2 477.22 112.08 476.12 114.39 475.52C115.84 475.16 117.27 474.86 118.67 474.62V488.97V488.98Z" fill="white"/>
<path d="M164.59 452.56C163.14 452.56 161.68 453.01 160.23 453.91C158.78 454.81 157.43 455.97 156.19 457.41C154.95 458.85 153.93 460.4 153.12 462.07V461.44L152.39 453.54L151.42 452.55L138.26 457.75V459.36L139.47 459.72C140.55 459.96 141.27 460.42 141.65 461.11C142.03 461.8 142.24 462.8 142.3 464.12V490.41C142.3 491.61 142.1 492.56 141.69 493.28C141.29 494 140.55 494.51 139.47 494.8L138.26 495.25V496.95H158.45V495.25L156.03 494.44C155.01 494.14 154.28 493.62 153.85 492.87C153.42 492.12 153.2 491.18 153.2 490.05V466.54C153.58 465.46 153.99 464.52 154.45 463.71C154.91 462.9 155.4 462.2 155.94 461.6C156.59 460.76 157.25 460.39 157.92 460.48C158.59 460.57 159.2 460.97 159.74 461.69L159.9 461.87C161.46 464.02 163.32 465.1 165.47 465.1C166.92 465.1 168.16 464.58 169.18 463.53C170.2 462.48 170.71 460.94 170.71 458.91C170.71 457.06 170.2 455.53 169.18 454.33C168.16 453.13 166.62 452.54 164.58 452.54L164.59 452.56Z" fill="white"/>
<path d="M197.5 492.89C196.64 493.46 195.67 493.74 194.59 493.74C193.35 493.74 192.32 493.2 191.48 492.12C190.64 491.04 190.23 489.43 190.23 487.27V456.68H199.52V453.9H190.32L190.56 441.43H188.14L182.89 449.5C181.97 450.88 180.96 451.95 179.86 452.73C178.76 453.51 177.42 454.05 175.86 454.35L173.68 454.71V456.68H179.41V477.94C179.41 479.67 179.4 481.19 179.37 482.47C179.34 483.76 179.33 485.12 179.33 486.55C179.33 490.68 180.29 493.65 182.2 495.48C184.11 497.3 186.73 498.22 190.07 498.22C192.76 498.22 195.02 497.67 196.85 496.56C198.68 495.45 200.11 493.91 201.13 491.94L200.08 490.59C199.22 491.55 198.36 492.31 197.5 492.88V492.89Z" fill="white"/>
<path d="M243.35 490.6V465.66C243.35 461.24 242.39 457.94 240.48 455.79C238.57 453.64 235.84 452.56 232.28 452.56C229.96 452.56 227.61 453.17 225.21 454.4C222.81 455.63 220.65 457.2 218.71 459.11L218.15 453.55L217.18 452.56L204.1 457.76V459.37L205.39 459.73C206.47 459.97 207.17 460.43 207.49 461.12C207.81 461.81 208 462.78 208.06 464.04V490.51C208.06 492.84 207.17 494.31 205.39 494.9L204.1 495.26V496.96H222.59V495.26L221.78 494.99C219.9 494.39 218.95 492.93 218.95 490.59V461.7C221.8 459.13 224.55 457.84 227.19 457.84C229.07 457.84 230.42 458.32 231.23 459.28C232.04 460.24 232.44 461.76 232.44 463.86V490.51C232.44 492.78 231.55 494.25 229.77 494.9L228.56 495.26V496.96H247.13V495.26L246.24 494.99C244.3 494.39 243.33 492.93 243.33 490.59L243.35 490.6Z" fill="white"/>
<path d="M278.57 454.89C276.15 453.34 273.24 452.56 269.85 452.56C266.46 452.56 263.32 453.47 260.28 455.3C257.24 457.12 254.76 459.74 252.85 463.15C250.94 466.56 249.98 470.72 249.98 475.62C249.98 480.52 250.8 484.4 252.44 487.78C254.08 491.16 256.36 493.75 259.26 495.54C262.17 497.33 265.53 498.23 269.35 498.23C273.17 498.23 276.47 497.32 279.24 495.49C282.01 493.67 284.21 491.11 285.82 487.82L284.53 486.47C283.13 488.26 281.6 489.65 279.93 490.64C278.26 491.63 276.08 492.12 273.39 492.12C269.51 492.12 266.57 490.77 264.55 488.08C262.53 485.39 261.5 480.96 261.44 474.8H285.74C285.9 474.2 286.01 473.56 286.06 472.87C286.11 472.18 286.14 471.45 286.14 470.67C286.14 467.14 285.48 464.02 284.16 461.3C282.84 458.58 280.97 456.44 278.55 454.88L278.57 454.89ZM275.91 472.3H261.46C261.57 467.81 261.96 464.33 262.63 461.85C263.3 459.37 264.22 457.63 265.37 456.65C266.53 455.66 267.89 455.17 269.45 455.17C272.3 455.17 274.24 456.52 275.26 459.21C276.28 461.9 276.5 466.27 275.91 472.31V472.3Z" fill="white"/>
<path d="M309.67 495.26L307.25 494.45C306.23 494.15 305.5 493.63 305.07 492.88C304.64 492.13 304.42 491.19 304.42 490.06V466.55C304.8 465.47 305.21 464.53 305.67 463.72C306.13 462.91 306.63 462.21 307.16 461.61C307.81 460.77 308.47 460.4 309.14 460.49C309.81 460.58 310.42 460.98 310.96 461.7L311.12 461.88C312.68 464.03 314.54 465.11 316.69 465.11C318.14 465.11 319.38 464.59 320.4 463.54C321.42 462.49 321.93 460.95 321.93 458.92C321.93 457.07 321.42 455.54 320.4 454.34C319.38 453.14 317.84 452.55 315.8 452.55C314.35 452.55 312.89 453 311.44 453.9C309.99 454.8 308.64 455.96 307.4 457.4C306.16 458.84 305.14 460.39 304.33 462.06V461.43L303.6 453.53L302.63 452.54L289.47 457.74V459.35L290.68 459.71C291.76 459.95 292.48 460.41 292.86 461.1C293.24 461.79 293.45 462.79 293.51 464.11V490.4C293.51 491.6 293.31 492.55 292.9 493.27C292.5 493.99 291.76 494.5 290.68 494.79L289.47 495.24V496.94H309.66V495.24L309.67 495.26Z" fill="white"/>
<path d="M335.98 479.65L339.53 480.91C342.44 481.93 344.46 483.03 345.59 484.23C346.72 485.43 347.29 486.98 347.29 488.89C347.29 490.98 346.53 492.64 345.03 493.87C343.52 495.1 341.5 495.71 338.97 495.71C336.92 495.71 335.24 495.17 333.92 494.1C332.6 493.02 331.43 491.38 330.41 489.17L327.99 484.06H325.81V494.65C327.69 495.79 329.67 496.67 331.74 497.3C333.81 497.93 336.14 498.24 338.72 498.24C344.26 498.24 348.56 496.94 351.6 494.34C354.64 491.74 356.16 488.31 356.16 484.07C356.16 480.9 355.32 478.18 353.66 475.91C351.99 473.64 349.19 471.81 345.26 470.44L341.79 469.27C339.04 468.25 337.05 467.16 335.81 465.99C334.57 464.82 333.95 463.31 333.95 461.46C333.95 459.49 334.69 457.95 336.17 456.84C337.65 455.73 339.36 455.18 341.3 455.18C343.13 455.18 344.49 455.55 345.38 456.3C346.27 457.05 347.14 458.38 348 460.29L350.5 465.4H352.6L353.09 455.8C351.31 454.78 349.5 453.99 347.64 453.42C345.78 452.85 343.75 452.57 341.54 452.57C338.15 452.57 335.27 453.2 332.9 454.45C330.53 455.71 328.73 457.4 327.49 459.52C326.25 461.64 325.63 463.99 325.63 466.56C325.63 469.85 326.56 472.59 328.41 474.77C330.26 476.95 332.78 478.58 335.96 479.66L335.98 479.65Z" fill="white"/>
</g></symbol><symbol id="mail" viewBox="0 0 22 16">
    <path d="M20.0664063,0 L1.93359375,0 C0.868742188,0 1.04805054e-13,0.828553846 1.04805054e-13,1.84615385 L1.04805054e-13,14.1538462 C1.04805054e-13,15.168 0.864875001,16 1.93359375,16 L20.0664063,16 C21.1285937,16 22,15.1742359 22,14.1538462 L22,1.84615385 C22,0.832 21.1351251,0 20.0664063,0 Z M19.7993985,1.23076923 L11.0409922,9.59314872 L2.20683204,1.23076923 L19.7993985,1.23076923 Z M1.2890625,13.8989949 L1.2890625,2.09513846 L7.49714454,7.97165128 L1.2890625,13.8989949 Z M2.20055859,14.7692308 L8.41255079,8.83815385 L10.5892188,10.8985436 C10.8411876,11.1370667 11.2478008,11.1362872 11.4987383,10.8966564 L13.6210937,8.87027692 L19.7994414,14.7692308 L2.20055859,14.7692308 Z M20.7109375,13.8989538 L14.5325899,8 L20.7109375,2.10100513 L20.7109375,13.8989538 Z"/>
</symbol><symbol id="menu" viewBox="0 0 22 12">
    <path d="M0,0 L22,0 L22,2 L0,2 L0,0 Z M0,5 L22,5 L22,7 L0,7 L0,5 Z M0,10 L22,10 L22,12 L0,12 L0,10 Z"/>
</symbol><symbol id="minus" viewBox="0 0 14 2">
    <rect x="0" y="0" width="14" height="2"/>
</symbol><symbol id="phone" viewBox="0 0 16 16">
    <path d="M15.9923736,12.6270968 C16.0262775,12.8870111 15.9471223,13.1129993 15.7552405,13.3050617 L13.5024754,15.5422629 C13.4008469,15.6552571 13.2681929,15.7513851 13.1044581,15.830398 C12.9407233,15.9095216 12.7798392,15.9603689 12.6218058,15.9829401 C12.6105137,15.9829401 12.5765545,15.985848 12.5200666,15.9914977 C12.4636893,15.9971197 12.390291,16 12.2999545,16 C12.0853501,16 11.7380917,15.9632769 11.2581793,15.8898029 C10.778267,15.8163291 10.1911078,15.6355107 9.49670173,15.347431 C8.8021296,15.0592959 8.01453641,14.6270379 7.13378375,14.0508231 C6.25303109,13.474636 5.31576281,12.6836215 4.32206192,11.6779459 C3.53161804,10.8982862 2.87667882,10.1525248 2.35724426,9.44068931 C1.83780971,8.72879843 1.42000366,8.07060748 1.10382611,7.46608876 C0.787620872,6.86157003 0.550487707,6.31354839 0.39239893,5.82202381 C0.234310153,5.33049924 0.127035625,4.90677116 0.070575347,4.55083957 C0.0141150694,4.19490799 -0.00846904164,3.91524745 0.00282301388,3.71185798 C0.0141150694,3.5084685 0.0197610972,3.39547434 0.0197610972,3.37287551 C0.0423452082,3.21468369 0.093159458,3.05366702 0.172203847,2.8898255 C0.251248235,2.72598397 0.347230708,2.59321585 0.460151263,2.49152111 L2.71291633,0.237287725 C2.87100511,0.0790959081 3.05167801,2.62012634e-13 3.254935,2.62012634e-13 C3.40173172,2.62012634e-13 3.53159036,0.042372808 3.64451092,0.127118424 C3.75743147,0.21186404 3.85341394,0.316383632 3.93245833,0.440677202 L5.74483325,3.8813492 C5.84646174,4.06213985 5.87469189,4.25987962 5.82952366,4.47456852 C5.78435544,4.68925741 5.68837297,4.87004806 5.54157624,5.01694046 L4.71161017,5.84744749 C4.68902605,5.87004633 4.66926496,5.90676943 4.65232687,5.9576168 C4.63538879,6.00846417 4.62691975,6.05083697 4.62691975,6.08473522 C4.67208797,6.32202294 4.77371647,6.59320892 4.93180525,6.89829313 C5.06730992,7.16947911 5.27621294,7.49998701 5.55851433,7.88981684 C5.84081572,8.27964667 6.24168369,8.72877074 6.76111824,9.23724443 C7.26926074,9.75707293 7.72094296,10.1609716 8.1161649,10.4491622 C8.51130382,10.7371864 8.84170715,10.9491336 9.10707045,11.0847265 C9.37243376,11.2203195 9.57569076,11.3022403 9.71681377,11.3304057 L9.92848447,11.3728062 C9.95106857,11.3728062 9.98785078,11.364304 10.0386097,11.3473826 C10.0894239,11.3304057 10.1261231,11.3106595 10.1487349,11.288033 L11.114178,10.3049838 C11.3175456,10.1242208 11.5545682,10.0338255 11.8256052,10.0338255 C12.0176254,10.0338255 12.1699852,10.0676961 12.2829057,10.1355203 L12.2998161,10.1355203 L15.5688385,12.0677203 C15.8060547,12.2147234 15.9471778,12.4011084 15.9923736,12.6270968 Z" id="Path"/>
</symbol><symbol id="place" viewBox="0 0 12 16">
    <path d="M6,0 C2.69158212,0 0,2.59944067 0,5.79456956 C0,9.75982439 5.3694122,15.5810502 5.59801968,15.8269255 C5.8127457,16.0578946 6.18764255,16.0574883 6.40198026,15.8269255 C6.63058775,15.5810502 12,9.75982439 12,5.79456956 C12,2.59944067 9.30838548,0 6,0 Z M5.99999998,8.70997936 C4.33545275,8.70997936 2.98128103,7.40213402 2.98128103,5.79456956 C2.98128103,4.1870051 4.3354851,2.87919101 5.99999998,2.87919101 C7.66451485,2.87919101 9.01868656,4.18703635 9.01868656,5.79460081 C9.01868656,7.40216527 7.66451485,8.70997936 5.99999998,8.70997936 Z"/>
</symbol><symbol id="play" viewBox="0 0 20 20">
    <polygon points="0 20 0 0 20 10"/>
</symbol><symbol id="plus" viewBox="0 0 14 14">
    <polygon points="6 6 6 0 8 0 8 6 14 6 14 8 8 8 8 14 6 14 6 8 0 8 0 6"/>
</symbol><symbol id="reset" viewBox="0 0 19 22">
    <path d="M10.5443113,21.9383415 C14.9251744,21.4439923 18.4361105,17.9161367 18.9357609,13.5029467 C19.591552,7.73254345 15.1393103,2.82051016 9.55839408,2.75759299 L9.55839408,0.169000878 C9.55839408,0.0251902057 9.37994752,-0.0512092142 9.25949609,0.0386724563 L3.96855554,3.95301921 C3.87933226,4.02043046 3.87933226,4.15075888 3.96855554,4.21817013 L9.25949609,8.13251689 C9.37994752,8.22239856 9.55839408,8.14150505 9.55839408,8.00218846 L9.55839408,5.41809044 C13.4797573,5.48100761 16.6204167,8.84258208 16.3527469,12.8602928 C16.1252275,16.316243 13.3280777,19.1205511 9.89744254,19.3407612 C6.26159385,19.5744535 3.17000718,16.9588969 2.61682283,13.4984526 C2.51421606,12.8557987 1.95657056,12.388414 1.31416294,12.388414 C0.515614573,12.388414 -0.108948392,13.1029733 0.0159642012,13.898426 C0.792206744,18.8284357 5.31136591,22.5270664 10.5443113,21.9383415 Z"/>
</symbol><symbol id="search" viewBox="0 0 20 20">
    <path d="M19.6959131,18.2168311 L14.7655709,13.2661587 C16.0332485,11.8112558 16.7278166,9.98069022 16.7278166,8.07499209 C16.7278166,3.62251167 12.9756946,-1.10134124e-13 8.36390831,-1.10134124e-13 C3.752122,-1.10134124e-13 5.5067062e-14,3.62251167 5.5067062e-14,8.07499209 C5.5067062e-14,12.5274725 3.752122,16.1499842 8.36390831,16.1499842 C10.0952373,16.1499842 11.7451092,15.6458238 13.1557005,14.6887617 L18.1234983,19.6770003 C18.3311414,19.8851946 18.6104233,20 18.9097057,20 C19.1929877,20 19.4617237,19.8957272 19.6657303,19.7061405 C20.0991989,19.3034441 20.1130176,18.6356774 19.6959131,18.2168311 Z M8.36390831,2.10651968 C11.7727464,2.10651968 14.5459275,4.78390618 14.5459275,8.07499209 C14.5459275,11.366078 11.7727464,14.0434645 8.36390831,14.0434645 C4.9550702,14.0434645 2.18188913,11.366078 2.18188913,8.07499209 C2.18188913,4.78390618 4.9550702,2.10651968 8.36390831,2.10651968 Z"/>
</symbol><symbol id="twitter" viewBox="0 0 18 15">
    <path d="M18,1.77473603 C17.3374989,2.07590135 16.6266448,2.28014823 15.8797612,2.37133363 C16.6423801,1.90282408 17.2261458,1.15970221 17.5028227,0.276935705 C16.7874686,0.710805664 15.9978497,1.02585096 15.1564954,1.19663501 C14.482759,0.459276352 13.5244339,0 12.461491,0 C10.4222523,0 8.76880845,1.696284 8.76880845,3.78721193 C8.76880845,4.08376064 8.80142615,4.37339954 8.86442625,4.65036542 C5.79600947,4.49225438 3.07515208,2.98407425 1.2541197,0.692339261 C0.935795647,1.25085745 0.754707116,1.9016473 0.754707116,2.59634012 C0.754707116,3.91068337 1.40709053,5.07038558 2.39691568,5.74887504 C1.79176763,5.72811542 1.22261964,5.55733136 0.724354125,5.27345567 L0.724354125,5.32076829 C0.724354125,7.15552013 1.99762091,8.68678328 3.68591779,9.03529138 C3.37659375,9.12068341 3.05041675,9.16799603 2.71297502,9.16799603 C2.47453346,9.16799603 2.24394484,9.14376641 2.01785624,9.0976004 C2.48800407,10.6034874 3.851271,11.6985572 5.46647952,11.7285801 C4.2033304,12.7440513 2.61062191,13.3475586 0.880707321,13.3475586 C0.582648011,13.3475586 0.289059296,13.3290923 0,13.2956295 C1.6343262,14.372263 3.57459408,15 5.65995042,15 C12.4525498,15 16.165497,9.22801183 16.165497,4.22225867 L16.1531146,3.73184289 C16.8785864,3.20099414 17.5062051,2.5340311 18,1.77473603 Z"/>
</symbol><symbol id="video_pause" viewBox="0 0 30 30">
    <path d="M15,0 C6.75,0 0,6.75 0,15 C0,23.25 6.75,30 15,30 C23.25,30 30,23.25 30,15 C30,6.75 23.25,0 15,0 Z M13.5,21 L10.5,21 L10.5,9 L13.5,9 L13.5,21 Z M19.5,21 L16.5,21 L16.5,9 L19.5,9 L19.5,21 Z"/>
</symbol><symbol id="video_play" viewBox="0 0 30 30">
    <path d="M15,0 C6.729,0 0,6.729 0,15 C0,23.271 6.729,30 15,30 C23.271,30 30,23.271 30,15 C30,6.729 23.271,0 15,0 Z M22.7815,15.413 L11.7815,22.913 C11.697,22.9705 11.5985,23 11.5,23 C11.42,23 11.3395,22.981 11.2665,22.942 C11.1025,22.8555 11,22.6855 11,22.5 L11,7.5 C11,7.3145 11.1025,7.1445 11.2665,7.058 C11.4305,6.971 11.6285,6.983 11.782,7.087 L22.782,14.587 C22.918,14.68 23,14.8345 23,15 C23,15.1655 22.918,15.32 22.7815,15.413 Z"/>
</symbol><symbol id="vimeo" viewBox="0 0 18 18">
    <path d="M0,0 L18,0 L18,18 L0,18 L0,0 Z M1.96070928,6.20434423 L2.65688312,7.09199945 C2.65688312,7.09199945 3.52712016,6.41320428 3.84041024,6.41320428 C4.03501188,6.41320428 4.44957222,6.6394825 4.71064729,7.4226682 C4.97172235,8.20589339 6.07096291,12.2657884 6.13783131,12.4526486 C6.43828486,13.2923545 6.83400515,14.8544997 8.05236861,15.0807779 C9.27073206,15.3070561 10.8197248,14.071314 11.6725437,13.1662406 C12.5253626,12.2612067 15.8845021,8.39733527 16.0237289,6.08249603 C16.1524891,3.94211498 15.4503512,3.4454799 15.1360737,3.24550667 C14.5617086,2.88000158 13.6044597,2.75819288 12.6994258,3.07144346 C11.7943919,3.38469404 10.4194229,4.41161562 10.0539178,6.23910158 C10.0539178,6.23910158 11.2896599,5.78658463 11.7421769,6.22168341 C12.1946938,6.65678218 12.0728851,7.61407058 11.6899619,8.32766259 C11.3070386,9.0412546 10.227981,10.6947168 9.82763956,10.7469319 C9.42733766,10.7991469 9.11404756,10.0159217 9.06183256,9.80706162 C9.00961751,9.59820157 8.34824052,6.72641536 8.10458362,5.05557445 C7.86092673,3.38473354 6.7992478,3.1062403 6.29447635,3.1062403 C5.78974439,3.1062798 4.91950734,3.48920306 1.96070928,6.20434423 Z"/>
</symbol><symbol id="youtube" viewBox="0 0 20 14">
    <path d="M19.15,1.34909091 C18.6075,0.366545455 18.01875,0.185818182 16.82,0.117090909 C15.6225,0.0343636364 12.61125,0 10.0025,0 C7.38875002,0 4.37625001,0.0343636364 3.18000001,0.115818182 C1.98375,0.185818182 1.39375,0.365272727 0.846250003,1.34909091 C0.287500002,2.33036364 0,4.02054545 0,6.99618182 C0,6.99872727 0,7 0,7 C0,7.00254545 0,7.00381818 0,7.00381818 L0,7.00636364 C0,9.96927273 0.287500002,11.6721818 0.846250003,12.6432727 C1.39375,13.6258182 1.9825,13.804 3.17875001,13.8867273 C4.37625001,13.958 7.38875002,14 10.0025,14 C12.61125,14 15.6225,13.958 16.82125,13.888 C18.02,13.8052727 18.60875,13.6270909 19.15125,12.6445455 C19.715,11.6734545 20,9.97054545 20,7.00763636 C20,7.00763636 20,7.00381818 20,7.00127273 C20,7.00127273 20,6.99872727 20,6.99745455 C20,4.02054545 19.715,2.33036364 19.15,1.34909091 Z M7.50000002,10.8181818 L7.50000002,3.18181818 L13.75,7 L7.50000002,10.8181818 Z"/>
</symbol></svg>