<svg xmlns="http://www.w3.org/2000/svg" width="22" height="22" viewBox="0 0 22 22">
  <path d="M2.34987367,11.9716157 L9.62713487,4.6937149 L9.62713487,20.6252739 C9.62713487,21.3843125 10.2427683,22 11.0017401,22 C11.760712,22 12.3763453,21.3843125 12.3763453,20.6252739 L12.3763453,4.6937149 L19.6536065,11.9716157 C20.1908678,12.5089243 21.0612105,12.5089243 21.5974406,11.9716157 C22.1336707,11.4343072 22.1347019,10.563888 21.5974406,10.0276108 L11.9731416,0.402465725 C11.8411465,0.270459022 11.6895583,0.171453994 11.5276581,0.10441934 C11.1904519,-0.03480648 10.8099347,-0.03480648 10.4727285,0.10441934 C10.3528501,0.153921854 10.2393524,0.221407703 10.1352805,0.306006725 L10.027245,0.403497028 L10.027245,0.403497028 L0.402945975,10.0286421 C-0.134315325,10.5659506 -0.134315325,11.4363698 0.402945975,11.972647 C0.904389855,12.4731725 1.69598464,12.5074392 2.23527691,12.0729317 L2.34987367,11.9716157 Z"/>
</svg>
