<svg xmlns="http://www.w3.org/2000/svg" width="175" height="175" viewBox="0 0 175 175">
    <path fill-rule="nonzero" d="M4.96987952 97C2.22518072 97 0 99.9998282 0 103.701031L0 168.298969C0 171.999278 2.22518072 175 4.96987952 175L22 175 22 97 4.96987952 97zM170.03012 97L153 97 153 175 170.03012 175C172.774819 175 175 171.999278 175 168.298969L175 103.701031C175 99.9998282 172.774819 97 170.03012 97zM119.012812 0L119.012812 21.1914062 92.163 21.191 92.1633541 34.7744141 149.972303 60.8665039C152.568095 62.0381836 153.716081 65.0774414 152.535738 67.6556152 151.670703 69.5450684 149.794683 70.6624023 147.832263 70.6624023 147.206981 70.6624023 146.573265 70.5488297 145.960171 70.3109223L145.698764 70.2013184 141.937775 68.5036133 141.937775 169.873047C141.937775 172.631558 139.743002 174.881912 136.992673 174.995501L136.774417 175 109 175 109 109 65 109 65 175 37.2255761 175C34.4471426 175 32.1811279 172.820377 32.0667487 170.089739L32.0622188 169.873047 32.0622188 68.5032715 28.3012293 70.2009766C25.7057817 71.3723145 22.644255 70.2331055 21.4642557 67.6552734 20.3158134 65.1471125 21.3715461 62.2021307 23.8207281 60.9655516L24.0280347 60.8665039 81.8366394 34.7744141 81.8366394 0 119.012812 0z"/>
    <rect width="25" height="54" x="75" y="121"/>
</svg>
