<?xml version="1.0" encoding="UTF-8"?>
<svg width="16px" height="16px" viewBox="0 0 16 16" version="1.1" xmlns="http://www.w3.org/2000/svg" xmlns:xlink="http://www.w3.org/1999/xlink">
    <path d="M15.9923736,12.6270968 C16.0262775,12.8870111 15.9471223,13.1129993 15.7552405,13.3050617 L13.5024754,15.5422629 C13.4008469,15.6552571 13.2681929,15.7513851 13.1044581,15.830398 C12.9407233,15.9095216 12.7798392,15.9603689 12.6218058,15.9829401 C12.6105137,15.9829401 12.5765545,15.985848 12.5200666,15.9914977 C12.4636893,15.9971197 12.390291,16 12.2999545,16 C12.0853501,16 11.7380917,15.9632769 11.2581793,15.8898029 C10.778267,15.8163291 10.1911078,15.6355107 9.49670173,15.347431 C8.8021296,15.0592959 8.01453641,14.6270379 7.13378375,14.0508231 C6.25303109,13.474636 5.31576281,12.6836215 4.32206192,11.6779459 C3.53161804,10.8982862 2.87667882,10.1525248 2.35724426,9.44068931 C1.83780971,8.72879843 1.42000366,8.07060748 1.10382611,7.46608876 C0.787620872,6.86157003 0.550487707,6.31354839 0.39239893,5.82202381 C0.234310153,5.33049924 0.127035625,4.90677116 0.070575347,4.55083957 C0.0141150694,4.19490799 -0.00846904164,3.91524745 0.00282301388,3.71185798 C0.0141150694,3.5084685 0.0197610972,3.39547434 0.0197610972,3.37287551 C0.0423452082,3.21468369 0.093159458,3.05366702 0.172203847,2.8898255 C0.251248235,2.72598397 0.347230708,2.59321585 0.460151263,2.49152111 L2.71291633,0.237287725 C2.87100511,0.0790959081 3.05167801,2.62012634e-13 3.254935,2.62012634e-13 C3.40173172,2.62012634e-13 3.53159036,0.042372808 3.64451092,0.127118424 C3.75743147,0.21186404 3.85341394,0.316383632 3.93245833,0.440677202 L5.74483325,3.8813492 C5.84646174,4.06213985 5.87469189,4.25987962 5.82952366,4.47456852 C5.78435544,4.68925741 5.68837297,4.87004806 5.54157624,5.01694046 L4.71161017,5.84744749 C4.68902605,5.87004633 4.66926496,5.90676943 4.65232687,5.9576168 C4.63538879,6.00846417 4.62691975,6.05083697 4.62691975,6.08473522 C4.67208797,6.32202294 4.77371647,6.59320892 4.93180525,6.89829313 C5.06730992,7.16947911 5.27621294,7.49998701 5.55851433,7.88981684 C5.84081572,8.27964667 6.24168369,8.72877074 6.76111824,9.23724443 C7.26926074,9.75707293 7.72094296,10.1609716 8.1161649,10.4491622 C8.51130382,10.7371864 8.84170715,10.9491336 9.10707045,11.0847265 C9.37243376,11.2203195 9.57569076,11.3022403 9.71681377,11.3304057 L9.92848447,11.3728062 C9.95106857,11.3728062 9.98785078,11.364304 10.0386097,11.3473826 C10.0894239,11.3304057 10.1261231,11.3106595 10.1487349,11.288033 L11.114178,10.3049838 C11.3175456,10.1242208 11.5545682,10.0338255 11.8256052,10.0338255 C12.0176254,10.0338255 12.1699852,10.0676961 12.2829057,10.1355203 L12.2998161,10.1355203 L15.5688385,12.0677203 C15.8060547,12.2147234 15.9471778,12.4011084 15.9923736,12.6270968 Z" id="Path"></path>
</svg>