<?xml version="1.0" standalone="no"?>
<!DOCTYPE svg PUBLIC "-//W3C//DTD SVG 20010904//EN"
 "http://www.w3.org/TR/2001/REC-SVG-20010904/DTD/svg10.dtd">
<svg version="1.0" xmlns="http://www.w3.org/2000/svg"
 width="700.000000pt" height="700.000000pt" viewBox="0 0 700.000000 700.000000"
 preserveAspectRatio="xMidYMid meet">
<metadata>
Created by potrace 1.11, written by Peter Selinger 2001-2013
</metadata>
<g transform="translate(0.000000,700.000000) scale(0.100000,-0.100000)"
fill="#000000" stroke="none">
<path d="M0 3500 l0 -3500 3500 0 3500 0 0 3500 0 3500 -3500 0 -3500 0 0
-3500z m6051 1667 c38 -29 39 -44 39 -522 l0 -466 -25 -24 -24 -25 -544 0
c-488 0 -545 2 -551 16 -3 9 -6 112 -6 230 l0 214 -865 0 -866 0 3 -147 3
-148 492 -3 492 -2 20 -26 c20 -25 21 -39 21 -269 l0 -243 -31 -26 -31 -26
-1264 0 -1264 0 0 445 0 445 -358 0 c-265 0 -361 3 -370 12 -9 9 -12 81 -12
261 0 252 3 277 39 304 23 18 5079 18 5102 0z m-2829 -1813 c74 -38 167 -45
743 -54 308 -5 583 -11 610 -14 28 -3 138 -13 245 -21 544 -43 836 -120 1047
-279 296 -223 283 -622 -28 -862 -204 -157 -497 -255 -964 -321 -144 -21
-1346 -31 -1495 -13 -181 22 -443 90 -602 156 -32 13 -59 24 -61 24 -2 0 -7
-44 -11 -97 -4 -53 -12 -103 -18 -110 -15 -18 -1058 -19 -1076 -1 -17 17 -17
669 0 686 9 9 147 12 560 12 l547 0 32 -48 c36 -56 75 -85 156 -117 143 -57
152 -58 875 -62 481 -3 678 -1 709 7 62 17 109 67 109 116 0 55 -19 85 -70
114 l-45 25 -565 7 c-639 7 -862 24 -1320 98 -372 61 -614 166 -796 345 -132
130 -176 229 -166 373 l4 52 774 0 c693 0 778 -2 806 -16z"/>
</g>
</svg>
